<svg xmlns="http://www.w3.org/2000/svg" preserveAspectRatio="xMidYMid" width="81" height="81" viewBox="0 0 81 81"><defs><style>.cls-1 { fill: #2b2c3d; fill-rule: evenodd; }</style></defs><path d="M78.638 13.551l-.001.001-4.093 4.029-11.402-11.224 4.092-4.031c1.572-1.547 3.643-2.326 5.703-2.325 2.059-.001 4.13.777 5.701 2.325 1.572 1.546 2.362 3.584 2.36 5.61.001 2.028-.79 4.067-2.36 5.615zm-1.762-9.489l-.001-.001c-1.09-1.073-2.508-1.605-3.938-1.606-1.43.001-2.85.534-3.941 1.607l-2.33 2.294 7.878 7.755 2.33-2.293c1.09-1.075 1.631-2.474 1.632-3.882-.001-1.407-.541-2.801-1.63-3.874zm1.761-1.736h.001l-.012-.012.011.012zm-14.929 25.923l-30.245 29.777-13.184 3.244-2.014.496 3.796-14.961 29.933-29.476 8.1-7.976 11.407 11.224-7.793 7.672zm-9.527-9.603l-29.87 29.413-2.622 10.335 10.5-2.583 30.084-29.619 5.703-5.614-7.881-7.755-5.914 5.823zm-18.339-5.474c-18.238 0-33.022 14.555-33.022 32.512 0 17.956 14.784 32.512 33.022 32.512s33.022-14.556 33.022-32.512c0-3.704-.638-7.258-1.796-10.575l2.159-2.261c4.855 12.297 2.548 26.8-7.226 37.037-13.547 14.191-36.298 14.883-50.712 1.544-14.416-13.341-15.116-35.737-1.569-49.927 9.774-10.238 24.327-13.407 37.099-9.392l-2.145 2.247c-2.812-.766-5.772-1.185-8.832-1.185z" class="cls-1"/></svg>