<svg xmlns="http://www.w3.org/2000/svg" preserveAspectRatio="xMidYMid" width="71.719" height="77.938" viewBox="0 0 71.719 77.938"><defs><style>.cls-1 { fill: #2b2c3d; fill-rule: evenodd; }</style></defs><path d="M71.301 25.851l-24.571 23.312 1.144 1.983 3.252-1.879c.63-.365 1.433-.149 1.796.481l10.729 18.599c1.759 3.05.71 6.966-2.338 8.728-3.048 1.761-6.96.712-8.72-2.338l-10.728-18.598c-.364-.63-.147-1.434.481-1.797l3.252-1.88-1.663-2.882c-.303-.527-.207-1.194.234-1.613l24.571-23.312-7.681-13.315-2.482 1.434-.214.073 5.753 9.971c.363.629.149 1.434-.481 1.797l-48.875 28.243c-.628.363-1.433.148-1.795-.481l-12.775-22.147c-.363-.629-.147-1.434.481-1.797l48.874-28.243c.63-.363 1.433-.147 1.795.481l5.753 9.975.17-.15 3.62-2.092c.628-.363 1.433-.147 1.795.481l8.857 15.351c.303.528.206 1.196-.234 1.615zm-26.502 30.11l10.071 17.459c1.034 1.794 3.336 2.41 5.128 1.375 1.793-1.037 2.411-3.339 1.375-5.134l-10.071-17.458-6.503 3.758zm4.922-52.835l-46.597 26.928 11.46 19.868 46.599-26.928-11.462-19.868zm7.713 67.223c.548-.317 1.248-.129 1.565.42.317.548.129 1.251-.419 1.566-.548.317-1.249.129-1.566-.419-.316-.549-.128-1.25.42-1.567z" class="cls-1"/></svg>