<svg xmlns="http://www.w3.org/2000/svg" preserveAspectRatio="xMidYMid" width="125" height="105.031" viewBox="0 0 125 105.031"><defs><style>.cls-1 { fill: #2b2c3d; fill-rule: evenodd; }</style></defs><path d="M123.998 58.55h-20.4l-.199.205c-2.719 2.807-6.857 4.171-10.045 4.586l-.588.077v2.24l.402.178c3.178 1.407 5.107 3.214 6.279 5.27 1.169 2.058 1.582 4.405 1.582 6.905 0 .756-.037 1.524-.103 2.299l-.062.731h15.668c.554 0 1.001.446 1.002 1.005-.001.559-.449 1.005-1.002 1.006h-15.929l-.088.572c-.147.947-.31 1.891-.471 2.823-.488 2.82-.958 5.508-.959 7.984 0 1.739.234 3.382.89 4.874.653 1.491 1.737 2.812 3.345 3.87.293.193.45.511.451.842 0 .191-.053.381-.167.554-.192.293-.509.449-.838.45-.187 0-.374-.053-.551-.168-2.02-1.336-3.274-2.916-4.051-4.68-.774-1.764-1.061-3.727-1.061-5.792-.001-2.69.489-5.539.964-8.277.133-.768.261-1.523.382-2.268l.127-.783h-88.191c-.553-.001-1.001-.447-1.002-1.006.001-.559.448-1.004 1.002-1.004h88.468l.058-.611c.076-.802.121-1.588.121-2.356 0-1.947-.288-3.79-1.107-5.451-.816-1.662-2.168-3.112-4.179-4.258l-.892-.509-.118 1.016c-.065.522-.469.901-.971.9h-54.638c-.554-.001-1.004-.448-1.005-1.006v-10.218h-6.384l.084.75c.038.347.063.692.063 1.036 0 .675-.096 1.393-.302 2.202-.031.12-.101.242-.221.385l-.296.35.217.404c.395.734.602 1.507.602 2.308 0 .522-.104 1.064-.337 1.682-.147.391-.522.649-.939.649h-15.29c-.415.001-.793-.259-.939-.652l-.001-.002c-.232-.621-.335-1.16-.335-1.677 0-.801.207-1.574.601-2.308l.219-.406-.299-.35c-.119-.14-.189-.262-.222-.388-.205-.811-.299-1.525-.299-2.197 0-.344.024-.687.065-1.032l.09-.754h-11.197c-.554 0-1.003-.446-1.003-1.006 0-.558.449-1.003 1.003-1.004h11.887l.191-.361c1.127-2.134 3.097-3.755 5.462-4.422l.268-.076.137-.241c1.315-2.322 6.31-10.078 16.325-14.667l.002-.001.271-.052.576-.086v-9.986c0-.173.054-.327.129-.468.117-.219.304-.387.54-.471.105-.037.215-.067.334-.067h11.892l-.436-.955c-.881-1.933-1.379-4.015-1.508-6.157-.018-.285-.043-.569-.046-.857l-.001-.002-.01-.19.037-.728c.084-2.024.505-3.959 1.223-5.749l.038-.102c.103-.251.219-.493.332-.738l.005-.009c.121-.259.239-.52.373-.772.362-.689.773-1.346 1.221-1.976l.404-.54.41-.534c.339-.407.694-.801 1.068-1.176 3.159-3.158 7.511-5.112 12.317-5.112s9.159 1.954 12.318 5.112c3.158 3.159 5.112 7.515 5.112 12.324 0 .479-.026.962-.066 1.449l-.008.101.022.098.035.286-.034.22-.058.111-.055.103-.016.116c-.232 1.636-.702 3.22-1.386 4.723l-.434.954h11.89c.552.001 1.001.446 1.001 1.006v10.01l.627.047c.148.01.246.032.304.06l.003.001.003.001c3.394 1.522 6.613 4 8.955 6.663 2.351 2.657 3.788 5.52 3.772 7.636 0 1.739-.33 3.232-.889 4.529l-.407.942h18.866c.551.001 1.002.449 1.003 1.007 0 .559-.451 1.005-1.003 1.006zm-109.239 7.754h13.222l-.145-.795c-.18-.942-.779-1.608-1.283-2.051l-.191-.167h-10.797l-.192.168c-.5.442-1.102 1.108-1.28 2.051l-.144.794h.81zm-.709-5.971l.011.323.046.625h13.723l.037-.635.009-.313c-.001-3.81-3.098-6.91-6.914-6.912-3.816.002-6.911 3.102-6.912 6.912zm22.068-21.741l-.979.488c-6.898 3.434-11.14 8.425-13.208 11.405l-.61.88 1.06.17c2.805.449 5.181 2.21 6.467 4.642l.19.36h7.08v-17.945zm40.507-30.538c-2.819-3.639-7.228-6-12.184-6-4.991.001-9.419 2.392-12.239 6.077-.148.194-.299.385-.438.586-.15.215-.285.439-.423.662-.45.725-.848 1.483-1.174 2.28-.128.314-.243.634-.351.957-.127.383-.234.774-.332 1.169-.084.342-.159.687-.22 1.038-.06.342-.121.683-.158 1.032l-.001.003c-.032.31-.038.628-.052.943l-.035.677.001.027h.001c.002.92.11 1.814.265 2.682l.135.761.739-.237c15.28-4.904 23.389-9.718 26.31-11.685l.598-.403-.442-.569zm-26.649 14.824l.293.682c.255.595.544 1.181.883 1.751l.197.331h26.19l.196-.334c.879-1.492 1.463-3.115 1.798-4.788l.113-.563-.539-.201c-4.413-1.653-7.429-3.535-8.794-4.495l-.328-.231-.361.177c-4.448 2.183-10.66 4.796-18.94 7.444l-.708.227zm29.9-4.948l-.039-1.039c-.08-2.069-.564-4.036-1.383-5.82l-.331-.722-.661.442c-.977.653-2.437 1.562-4.428 2.653l-1.022.56.995.607c1.382.843 3.348 1.911 5.901 2.932l.968.387zm10.88 9.722h-52.633v40.106h51.957v-.674h.676v-39.432zm13.665 23.418c-.005-.839-.316-1.763-.838-2.782-1.576-3.033-5.177-6.901-9.838-9.263l-.983-.496v9.579l1.631-.399h.003l.237-.03c.439-.001.857.309.968.77l.029.239c0 .451-.309.866-.767.975l-2.1.512v11.218l.786-.128c1.729-.283 4.386-.919 6.676-2.439 1.143-.762 2.196-1.752 2.962-3.035.766-1.28 1.234-2.849 1.234-4.712v-.009zm-39.98 2.227c-1.54 0-2.933-.626-3.948-1.64-1.014-1.015-1.64-2.409-1.64-3.952 0-1.543.626-2.938 1.639-3.953 1.015-1.014 2.407-1.639 3.949-1.639 1.541 0 2.934.625 3.949 1.639 1.013 1.015 1.64 2.41 1.64 3.953 0 1.543-.627 2.937-1.64 3.952-1.015 1.014-2.408 1.64-3.949 1.64zm0-9.172c-1.979.001-3.583 1.605-3.583 3.581s1.604 3.58 3.583 3.582c1.98-.002 3.583-1.606 3.584-3.582-.001-1.976-1.604-3.58-3.584-3.581zm-13.564-30.327c.279-1.026.66-2.01 1.152-2.93.209.515.403 1.036.563 1.571l.089.296-1.704 1.487-.1-.424zm-12.013-1.892l-.399.042-.155.369c-1.915 4.57-4.873 10.623-9.364 18.06l-.383.634.669.322c.469.225.954.424 1.451.603l-2.26 1.973.28-.614c-2.253-1.022-4.267-2.507-5.922-4.4-2.885-3.305-4.298-7.393-4.299-11.468.001-4.863 2.014-9.693 5.95-13.13 3.296-2.876 7.373-4.285 11.441-4.285 4.868.001 9.708 2.018 13.154 5.966h.001l.308.387c-.815 1.106-1.52 2.297-2.08 3.569-3.846 1.326-6.887 1.815-8.392 1.972zm.01-9.578c-.995-.196-2.007-.295-3.02-.295-3.588 0-7.195 1.24-10.105 3.781-3.483 3.04-5.266 7.319-5.265 11.614-.001 3.601 1.253 7.224 3.805 10.146.611.701 1.288 1.306 1.979 1.863l.606.487.4-.665c8.282-13.738 11.218-22.695 12.123-26.096l.185-.696-.708-.139zm8.235 4.548c-1.421-1.508-3.08-2.673-4.873-3.478l-.726-.327-.206.768c-.304 1.133-.806 2.778-1.588 4.908l-.4 1.092 1.15-.195c1.596-.272 3.78-.76 6.374-1.669l.98-.344-.711-.755z" class="cls-1"/></svg>