<svg xmlns="http://www.w3.org/2000/svg" preserveAspectRatio="xMidYMid" width="93" height="95" viewBox="0 0 93 95"><defs><style>.cls-1 { fill: #2b2c3d; fill-rule: evenodd; }</style></defs><path d="M49.587 2.885c.011 1.561 1.271 2.83 2.838 2.84h.018c1.591-.003 2.866-1.296 2.867-2.878v-.035c-.015-1.556-1.276-2.814-2.836-2.822v-.001h-.021c-.789-.002-1.522.308-2.041.831-.521.521-.827 1.253-.825 2.039v.027-.001zm2.152-.749c.172-.17.404-.279.714-.281h.002c.55.005.973.422.985.98v.012c0 .281-.112.531-.296.717-.185.185-.428.295-.701.295h-.006c-.536-.003-.975-.438-.98-.988v-.012c.002-.314.112-.55.282-.723zm.772 11.035v.001h.002l-.002-.001zm-8.607-.433v-.002.002zm.817 2.079c.515.526 1.248.838 2.035.835h.003c1.586-.003 2.878-1.272 2.882-2.852l-.001-.07v-.001c-.049-1.556-1.313-2.795-2.874-2.812h-.015c-1.563.002-2.826 1.262-2.847 2.821v.039c-.002.784.299 1.516.817 2.04zm1.054-2.053v-.002c.006-.547.451-.981.976-.978v-.001l.002.001h.003c.526-.007 1.009.466 1.014.993v-.001.024c0 .527-.448.985-1.013.986h-.001c-.307-.002-.532-.109-.702-.278-.166-.171-.278-.41-.279-.731v-.013zm6.61 6.144h.048c.784.002 1.513-.307 2.033-.824.523-.514.839-1.239.846-2.024v-.026c-.011-1.55-1.24-2.82-2.801-2.862l-.058-.001c-1.582-.002-2.86 1.283-2.869 2.863v-.004.024c-.006 1.553 1.238 2.835 2.801 2.854zm-.931-2.859v.001c.009-.58.451-1.011.999-1.013l.019.001h.003c.253.004.493.115.676.302.183.188.291.436.29.694v.011-.003c-.004.304-.116.541-.291.717-.178.173-.416.281-.717.283h-.021.001c-.542-.013-.953-.427-.959-.988v-.005zm-1.87-6.58v-.004.004zm2.795 2.888h.067c1.582-.012 2.847-1.294 2.864-2.874v-.017c.008-1.557-1.252-2.828-2.813-2.837h.002-.036c-.784-.002-1.52.293-2.044.811-.526.516-.832 1.247-.835 2.029v.016c.008 1.552 1.236 2.824 2.795 2.872zm-.925-2.875c.005-.323.115-.548.279-.713.167-.162.399-.271.73-.273h.015c.555.013.954.416.962.97v.008c-.001.273-.116.529-.304.719-.19.19-.435.298-.69.298h-.022c-.513-.004-.977-.478-.97-1.006v-.003zm-11.571 53.486l.003-.004-.001.001-.002.003zm.003-.004zm1.208-50.611h.038c.782-.011 1.487-.344 1.997-.852s.844-1.212.853-1.993v.001-.035c.001-.785-.319-1.511-.843-2.022-.522-.515-1.251-.822-2.038-.821h-.025c-.775.003-1.496.304-2.011.816-.517.509-.824 1.228-.828 2v.022c.003 1.582 1.267 2.881 2.857 2.884zm-.987-2.889v-.003c.004-.299.11-.523.276-.689.167-.163.397-.271.705-.275h.013c.305.001.549.112.727.285.175.175.282.405.283.692v.015c-.001.251-.112.5-.304.692-.192.191-.445.303-.699.305h-.014c-.27 0-.508-.108-.692-.292-.182-.185-.295-.437-.295-.725v-.005zm20.001 18.954l.001.004-.001-.004zm13.643 6.493l-.001-.003.001.003zm-12.129-5.482l-.001-.003.001.003zm30.73 40.692l-.002-.008-1.747-6.461c-.016-.189-.047-.366-.09-.505l-.104-.304v-.433l-.123-.123-8.101-29.743-.002-.008c-.555-1.868-2.275-3.169-4.231-3.174-.385 0-.778.051-1.167.159l-.006.002-.008.002c-1.871.554-3.175 2.27-3.18 4.222 0 .384.052.776.16 1.164l4.139 15.079.018.141c.002.259-.187.518-.477.589l-.142.017c-.259.002-.519-.185-.59-.476l-.004-.016-6.64-23.188-.001-.003c-.554-1.868-2.275-3.169-4.231-3.174-.385 0-.777.051-1.167.159l-.006.002-.007.002c-1.872.553-3.176 2.27-3.181 4.222 0 .384.052.776.16 1.164l5.948 21.66.033.049-.053.177c-.063.095-.139.182-.209.239l-.174.097-.051.013-.049.018-.175.032c-.243.008-.518-.202-.56-.42l-.002-.008-6.221-22.864c-.513-1.945-2.243-3.284-4.221-3.28-.307.003-.735-.01-1.229.153l-.016.005-.015.006c-.479.179-.971.42-1.426.76-.44.329-.843.762-1.128 1.308l-.004-.002-.015.031-.009.013.002.001c-.351.634-.515 1.35-.515 2.079 0 .374.043.752.126 1.127l.005.021 6.56 24.107.041.082.004.009.001.094v.066l.01.066.004.054c.001.096-.039.221-.129.334-.085.109-.209.193-.333.231l-.125.015c-.259.002-.519-.186-.59-.477l-.002-.009-3.837-14.178v.002c-.513-1.944-2.243-3.283-4.221-3.277-.298.002-.71-.007-1.183.138l-.001-.002-.018.007-.025.006.001.003c-1.979.571-3.224 2.352-3.221 4.242 0 .33.038.663.115.993l.004.017 6.33 23.087.001.005.028.193c-.004.23-.11.392-.272.474l-.053.027-.049.032c-.118.078-.207.097-.29.099-.114-.002-.243-.042-.393-.189l-3.941-3.931-.004.004c-.391-.441-.859-.781-1.37-.993-.533-.223-1.101-.319-1.671-.319-1.211.007-2.342.51-3.149 1.308-.892.875-1.322 2.005-1.311 3.142.007 1.208.512 2.336 1.311 3.143l.002.001 13.269 13.137-.004-.004c.191.193.375.341.54.456l.432.283.001.001.334.24.035.036.004.011.019.042c1.689 3.758 3.609 6.621 5.867 8.576 2.251 1.956 4.871 2.966 7.743 2.96 1.277 0 2.602-.194 3.973-.571l7.878-2.172.001-.001c1.969-.546 3.807-1.41 5.336-2.39l.276-.177.105-.311.043-.104.135-.143c4.424-3.381 6.91-8.471 7.126-13.769v-.038c0-1.732-.217-3.465-.649-5.191zm-7.692 17.583l-.053.04-.046.046c-.1.102-.218.214-.344.389l-.11.222c-1.338.833-2.942 1.579-4.626 2.045l-7.877 2.172.001-.001c-1.234.339-2.39.504-3.477.504-2.441-.007-4.546-.808-6.518-2.504-1.967-1.697-3.769-4.327-5.385-7.929l-.01.005c-.128-.318-.324-.556-.505-.718-.202-.18-.392-.301-.548-.406l.002.001-.397-.26c-.094-.066-.169-.125-.288-.244l-.002-.002-13.269-13.135c-.445-.437-.769-1.169-.762-1.823.011-.723.204-1.249.763-1.822v-.001c.436-.444 1.17-.767 1.826-.76.363 0 .676.06.947.173.271.114.506.28.726.535l.024.027 3.966 3.956-.001-.001c.452.457 1.068.738 1.717.737.425.001.847-.135 1.224-.363l.004.009.048-.034.054-.025-.005-.008c.758-.427 1.213-1.229 1.21-2.077 0-.231-.034-.465-.099-.696h.002l-6.316-23.037c-.044-.187-.066-.375-.066-.562.003-1.093.718-2.134 1.894-2.459l.022-.006.021-.007c.13-.046.326-.058.64-.056 1.133.005 2.097.733 2.414 1.893l3.836 14.173.001-.001c.287 1.109 1.276 1.873 2.399 1.875.197 0 .397-.024.595-.074l.016-.003.015-.005c.534-.153.981-.47 1.304-.879.321-.409.526-.923.527-1.486l-.013-.186c-.001-.101.003-.231-.026-.412-.021-.136-.069-.272-.123-.399l-6.508-23.913c-.054-.245-.08-.486-.08-.716-.001-.465.106-.879.29-1.199l.013-.022.011-.023c.131-.26.334-.489.607-.693.265-.199.595-.367.938-.496.128-.043.319-.056.625-.054 1.132.005 2.098.735 2.414 1.893v.002l6.22 22.862.002-.001c.297 1.097 1.276 1.807 2.368 1.815.242 0 .489-.044.731-.123l.001.004.033-.013.067-.019-.002-.006c.321-.098.599-.254.816-.435.242-.201.425-.424.569-.639.235-.364.366-.762.373-1.231-.001-.233-.043-.496-.171-.758l-5.885-21.43c-.062-.226-.092-.448-.092-.665-.005-1.096.763-2.116 1.83-2.428.224-.062.445-.091.661-.091 1.101-.005 2.126.765 2.436 1.834l6.633 23.163.002-.001c.292 1.102 1.276 1.861 2.395 1.862.197 0 .398-.024.596-.073 1.119-.281 1.892-1.273 1.894-2.4 0-.197-.024-.397-.074-.594l-.002-.011-4.149-15.111-.001-.003c-.063-.226-.092-.448-.092-.665-.005-1.095.762-2.115 1.83-2.428.224-.061.445-.091.661-.091 1.1-.005 2.124.764 2.435 1.832l8.052 29.562.037.244.063.157v.132l.048.144.135.387.025.145v.123l1.791 6.623c.394 1.575.59 3.145.592 4.713-.201 4.798-2.456 9.385-6.47 12.414zm-43.586-81.073h.003-.003zm-9.039 41.265c-1.654-1.5-3.566-2.338-5.256-3.095l-.381.852.381-.852c-1.878-.832-3.473-1.571-4.585-2.898-.561-.667-1.025-1.493-1.362-2.626-.336-1.131-.536-2.57-.536-4.418 0-1.268.094-2.727.299-4.407v-.001l.019-.308c0-.621-.227-1.226-.645-1.697-.487-.549-1.185-.862-1.92-.863h-9.401c-.821 0-1.592.392-2.074 1.056h-.001.001c-.188.258-3.21 4.489-5.102 12.185-.809 3.294-1.474 7.547-1.474 12.628 0 5.769.858 12.605 3.325 20.309.338 1.06 1.326 1.78 2.442 1.78h24.268c.69 0 1.351-.277 1.834-.77.32-.317 4.253-4.568 4.248-13.755 0-1.874-.163-3.952-.55-6.241-.534-3.202-1.873-5.382-3.53-6.879zm-1.505 25.57c-.132.134-.31.208-.497.208h-24.268c-.303 0-.569-.194-.66-.48v-.001c-2.408-7.518-3.236-14.156-3.236-19.741 0-4.919.643-9.021 1.42-12.184 1.82-7.408 4.727-11.435 4.798-11.531l.002-.004-.001.002c.13-.179.339-.285.56-.285h9.401c.198-.001.389.086.519.233.114.128.175.292.175.46l-.005.083c-.212 1.74-.312 3.273-.312 4.633 0 1.981.212 3.597.612 4.948.594 2.025 1.647 3.442 2.905 4.445 1.256 1.007 2.675 1.628 4.074 2.254 1.694.752 3.392 1.524 4.758 2.769 1.363 1.25 2.455 2.954 2.946 5.81.37 2.191.523 4.164.523 5.931-.005 8.639-3.648 12.373-3.714 12.45zm-4.056-57.424l-.926.343c-1.074.397-1.992.975-2.718 1.748-.728.773-1.252 1.727-1.598 2.83l-.129.409.227.363c.745 1.196 1.496 2.391 2.302 3.564 1.315 1.918 2.897 3.591 4.631 5.16l.598.542.624-.512 2.286-1.879.702-.576-.558-.717c-2.411-3.097-3.977-6.577-5.148-10.334l-.293-.941zm2.46 12.482c-1.421-1.338-2.698-2.733-3.759-4.28-.693-1.009-1.354-2.053-2.016-3.112.266-.698.605-1.263 1.034-1.721.315-.334.688-.615 1.121-.86 1.087 3.242 2.522 6.339 4.587 9.179l-.967.794zm9.303-19.077v-.004.004zm-7.902 4.46l3.128-.478h-.002c.474-.074.861-.319 1.138-.64.276-.322.461-.74.463-1.219v-4.597c-.002-.479-.187-.898-.464-1.219-.278-.32-.665-.563-1.137-.637h-.003l-3.127-.464-.805-.12-1.073-.16v9.821l1.882-.287zm-.012-7.368l2.844.422.023.024.002.003v4.567l-.022.028-.003.003-2.844.435v-5.482zm-10.657 17.324v.001-.001zm27.097-14.859h.031c1.562-.014 2.831-1.266 2.846-2.825v-.026c-.001-.795-.34-1.511-.858-2.026-.517-.515-1.236-.852-2.033-.853h-.028.002c-1.568.026-2.81 1.304-2.82 2.865v.004c-.003.783.293 1.519.817 2.041.521.525 1.259.823 2.043.82zm-.989-2.863c0-.267.11-.517.292-.704.184-.187.423-.294.676-.297h.007c.255-.001.515.112.712.308.197.197.31.454.309.705v.007c-.007.537-.437.97-.995.977h.002-.014c-.33-.002-.555-.11-.718-.27-.16-.164-.269-.391-.271-.724v-.002zm-44.064 8.657c.185.379.468.737.877.989l.001.001 1.103.682.512.305h.001c.888.517 1.468 1.116 1.876 1.772.406.656.638 1.383.76 2.153.149.926.095 1.987.126 3.123v.001c.01.255.028.493.093.747.048.188.128.391.265.583.204.293.54.497.833.578.298.088.57.103.864.105h-.001c1.189.003 2.377.004 3.566.004 1.665 0 3.33-.003 4.996-.008h-.001c.263-.002.506-.015.764-.074.192-.045.399-.121.593-.254.297-.198.505-.524.594-.807.094-.289.119-.552.134-.834.036-.888-.011-1.672.127-2.27.425-1.92 1.215-3.391 2.344-4.504 1.131-1.111 2.625-1.884 4.545-2.309h.002c.18-.041.355-.091.537-.175.267-.118.566-.359.725-.673.16-.312.187-.608.188-.865l-.003-.137v.001c-.014-.37-.019-.746-.019-1.126l.011-1.765v-5.399l-.763-.143-.256-.055c-.094-.02-.226-.05-.405-.05h-.342l-8.095-.06c-2.064 0-4.134.035-6.207.159-2.71.152-4.755 1.026-6.346 2.448-1.595 1.417-2.75 3.296-3.988 5.486v-.001c-.21.374-.29.774-.291 1.159.001.42.095.831.28 1.213zm1.64-1.454l.002-.004-.001.003c1.213-2.157 2.294-3.856 3.599-5.007 1.308-1.146 2.825-1.829 5.217-1.98 2.019-.121 4.052-.155 6.095-.155 2.648 0 5.314.057 7.99.059v3.781l-.01 1.765c0 .381.005.768.02 1.158-2.181.481-4.027 1.407-5.438 2.797-1.418 1.392-2.374 3.23-2.858 5.432-.206.966-.128 1.849-.169 2.582v.001l-.015.183-.206.007h-.001c-1.663.006-3.326.008-4.989.008-1.187 0-2.374-.001-3.561-.004h-.001l-.173-.006-.015-.2v.002c-.035-1.027.036-2.163-.148-3.356-.15-.951-.451-1.93-1.016-2.844-.564-.913-1.393-1.748-2.529-2.405l.001.001-.452-.268c-.121-.077-.355-.225-1.125-.696-.045-.027-.118-.098-.175-.216-.057-.116-.092-.269-.091-.397-.001-.118.028-.207.049-.241zm3.225 15.293l-.001.002.001-.002z" class="cls-1"/></svg>