<svg xmlns="http://www.w3.org/2000/svg" preserveAspectRatio="xMidYMid" width="108" height="75" viewBox="0 0 108 75"><defs><style>.cls-1 { fill: #2b2c3d; fill-rule: evenodd; }</style></defs><path d="M107.198 64.17c-.722.838-1.852 1.262-3.355 1.262-.249 0-.495-.011-.731-.028l-.019-.003-3.751-.285c-.351-.027-.658-.243-.799-.557-.14-.318-.088-.683.132-.951l2.395-2.899c.47-.632 1.354-1.489 2.343-1.887 1.655-.662 3.475.087 4.241 1.692.592 1.239.418 2.641-.456 3.656zm-1.269-2.871c-.259-.544-.952-1.1-1.793-.762-.497.201-1.136.734-1.558 1.298l-1.292 1.567c1.226.094 1.738.135 1.97.16v-.008h.001c.189.016.387.022.585.022.915 0 1.555-.201 1.898-.6.59-.688.294-1.458.189-1.677zm-12.077-37.192h-16.888c-.054 4.532-.812 8.276-1.988 11.385h1.272c.252-.027 8.626-.688 15.036 4.564 4.012 3.287 6.321 8.128 6.866 14.387l.004 6.981c0 .603-.499 1.092-1.119 1.092-.618 0-1.118-.489-1.118-1.092v-6.889c-.486-5.558-2.524-9.895-6.053-12.795-5.684-4.67-13.441-4.073-13.515-4.069l-2.309.005-.241.475h1.427l.132.008c.154.019 15.3 2.01 15.3 22.026v13.723c0 .604-.5 1.091-1.119 1.091s-1.12-.487-1.12-1.091v-13.723c0-17.585-12.173-19.696-13.268-19.85h-2.625c-4.334 6.584-10.62 8.872-13.105 9.544v14.443c0 2.71-2.26 4.914-5.038 4.914-2.779 0-5.039-2.204-5.039-4.914v-14.177h-4.065v19.635c0 2.709-2.26 4.914-5.038 4.914-2.778 0-5.038-2.205-5.038-4.914v-19.635h-11.052v19.637c0 2.709-2.26 4.913-5.037 4.913-2.778 0-5.039-2.204-5.039-4.913v-32.036l-.052-.054c-1.667-1.872-2.882-4.017-3.766-6.222v2.462c0 2.759-2.301 5.004-5.129 5.004-2.827 0-5.129-2.245-5.129-5.004v-14.592c0-2.76 2.302-5.004 5.129-5.006 1.127 0 2.161.369 3.009.972l.006-.054c.062-.553.54-.973 1.112-.973h38.71c.12 0 .23.029.338.062.114-.038.233-.062.353-.062h16.683c.579-.844 3.562-5.635-.405-9.504-.154-.174-1.011-1.209-.864-2.471.06-.506.307-1.238 1.156-1.862.135-.094.692-.44 1.539-.44.772 0 1.939.3 3.106 1.724.023.024 5.164 5.754 2.039 12.553h21.942c2.778 0 5.04 2.205 5.04 4.913 0 2.711-2.262 4.915-5.04 4.915zm-85.832-4.056l-.024-.941c-.122-1.446-1.355-2.591-2.868-2.591-1.594 0-2.892 1.264-2.892 2.821v14.592c0 1.556 1.298 2.821 2.892 2.821 1.594 0 2.892-1.265 2.892-2.821v-13.881zm43.562 44.272c0 1.506 1.256 2.731 2.801 2.731 1.543 0 2.799-1.225 2.799-2.731v-14.178h-5.6v14.178zm-4.614-46.65c-.011-.464-.026-.883-.043-1.209h-36.629c-.157 2.937-.209 11.881 4.203 18.232.376.541.773 1.073 1.217 1.571.189.212.397.397.596.599 2.95 2.959 6.939 4.555 11.903 4.711l.189.021.205-.007.209.007.189-.021c5.301-.165 9.507-1.955 12.502-5.317 5.078-5.701 5.542-14.528 5.459-18.587zm8.048 1.667c0-1.557-1.296-2.821-2.891-2.821-1.594 0-2.891 1.264-2.891 2.821v14.592c0 1.556 1.297 2.821 2.891 2.821 1.595 0 2.891-1.265 2.891-2.821v-14.592zm13.403-16.413c-.586-.713-1.146-1.068-1.657-1.068-.27 0-.441.099-.448.102-.281.21-.34.419-.355.554-.049.415.289.907.374 1.008 3.652 3.558 2.662 8.058 1.216 10.757h2.236c3.394-6.05-1.316-11.299-1.366-11.353zm25.436 13.537h-37.545c.592.814.945 1.804.945 2.876v14.592c0 2.759-2.301 5.004-5.128 5.004-2.829 0-5.131-2.245-5.131-5.004v-2.567c-.887 2.242-2.103 4.425-3.797 6.327-3.377 3.791-8.049 5.83-13.891 6.059-.094.026-.19.041-.287.041l-.274-.011-.137-.006-.136.006c-.19.011-.394.021-.578-.031-4.617-.183-8.49-1.518-11.583-3.936v29.966c0 1.507 1.257 2.73 2.801 2.73 1.545 0 2.8-1.223 2.8-2.73v-20.726c0-.604.5-1.091 1.118-1.091h13.288c.619 0 1.12.487 1.12 1.091v20.728c0 1.505 1.255 2.73 2.8 2.73 1.543 0 2.8-1.225 2.8-2.73v-20.728c0-.603.5-1.091 1.119-1.091h13.896l.02-.007c1.705-.344 16.656-3.94 16.656-24.385v-.554c0-.603.5-1.092 1.12-1.092h18.004c1.544 0 2.801-1.226 2.801-2.731 0-1.506-1.257-2.73-2.801-2.73zm-56.402 10.679c-1.035 0-1.874-.819-1.874-1.829 0-1.009.839-1.828 1.874-1.828 1.035 0 1.874.819 1.874 1.828 0 1.01-.839 1.829-1.874 1.829zm-8.717 12.702c-.108.132-.27.208-.441.208h-.014c-.175-.004-.339-.088-.443-.228l-3.8-5.188c-.12-.168-.136-.387-.04-.568.094-.183.286-.296.496-.296h7.982c.213 0 .409.118.503.307.093.188.069.411-.062.576l-4.181 5.189zm-9.73-12.703c-1.035 0-1.873-.818-1.873-1.828 0-1.009.838-1.827 1.873-1.827 1.034 0 1.872.818 1.872 1.827 0 1.01-.838 1.828-1.872 1.828zm62.786 40.958c.989.398 1.873 1.254 2.371 1.924l2.365 2.863c.222.267.273.632.133.95-.141.314-.447.53-.8.557l-3.75.285-.019.003c-.235.019-.48.029-.73.029-1.504 0-2.633-.427-3.354-1.263-.874-1.017-1.05-2.417-.457-3.656.767-1.605 2.589-2.358 4.241-1.692zm-2.327 4.154c.343.399.982.602 1.897.602.2 0 .397-.01.584-.024v.008c.234-.024.744-.066 1.97-.158l-1.264-1.529c-.448-.604-1.089-1.137-1.586-1.337-.187-.075-.37-.115-.544-.115-.611 0-1.046.452-1.247.876-.106.219-.401.99.19 1.677zm15.431-2.267c.471-.633 1.355-1.489 2.342-1.887 1.652-.665 3.476.086 4.243 1.692.591 1.24.417 2.639-.458 3.655-.72.839-1.851 1.263-3.354 1.263-.25 0-.496-.011-.732-.028l-.02-.002c-.207-.018-3.748-.286-3.748-.286-.351-.027-.659-.243-.799-.557-.141-.316-.088-.682.132-.951l2.394-2.899zm2.187 2.853v-.008h.001c.189.016.386.022.585.022.915 0 1.555-.201 1.898-.6.591-.688.295-1.458.19-1.677-.259-.545-.956-1.096-1.794-.762-.494.201-1.137.735-1.558 1.3l-1.292 1.565c1.226.094 1.737.135 1.97.16z" class="cls-1"/></svg>